<?xml version="1.0" standalone="no"?>
<!DOCTYPE svg PUBLIC "-//W3C//DTD SVG 20010904//EN"
 "http://www.w3.org/TR/2001/REC-SVG-20010904/DTD/svg10.dtd">
<svg version="1.0" xmlns="http://www.w3.org/2000/svg"
 width="700.000000pt" height="700.000000pt" viewBox="0 0 700.000000 700.000000"
 preserveAspectRatio="xMidYMid meet">
<metadata>
Created by potrace 1.14, written by Peter Selinger 2001-2017
</metadata>
<g transform="translate(0.000000,700.000000) scale(0.100000,-0.100000)"
fill="#000000" stroke="none">
<path d="M3259 6746 c-2 -2 -29 -7 -59 -9 -50 -5 -136 -18 -215 -33 -240 -44
-595 -182 -762 -296 -23 -15 -44 -28 -47 -28 -11 0 -186 -126 -266 -193 -94
-78 -239 -221 -285 -281 -16 -22 -39 -51 -51 -65 -66 -82 -237 -381 -218 -381
4 0 2 -6 -4 -12 -29 -37 -99 -294 -118 -433 -22 -164 -22 -511 1 -625 3 -14 8
-45 11 -70 10 -76 62 -265 98 -358 100 -259 235 -447 466 -651 95 -84 313
-215 485 -292 183 -82 505 -173 755 -213 139 -23 187 -29 310 -41 174 -17 362
-48 495 -81 277 -69 402 -145 477 -291 101 -194 60 -343 -129 -474 -135 -94
-328 -163 -543 -195 -183 -27 -465 1 -830 82 -14 3 -79 23 -145 45 -165 54
-379 162 -495 250 -138 104 -212 127 -313 97 -44 -13 -68 -34 -202 -182 -49
-55 -119 -130 -153 -167 -35 -38 -73 -79 -84 -91 -11 -13 -61 -67 -111 -122
-174 -187 -221 -274 -216 -401 5 -140 60 -227 214 -342 254 -190 518 -327 835
-435 105 -35 342 -99 415 -112 17 -2 67 -12 112 -20 156 -29 342 -49 543 -61
108 -6 439 -7 505 -1 191 18 214 21 335 42 47 8 99 17 115 20 77 13 329 90
449 138 130 53 356 164 387 192 8 8 18 14 22 14 3 0 34 19 69 42 384 253 620
572 722 977 15 56 17 67 38 196 16 91 15 532 0 650 -7 50 -15 110 -18 135 -10
75 -52 249 -85 350 -80 244 -193 435 -354 595 -100 100 -124 119 -261 210
-291 193 -638 324 -1102 414 -53 11 -119 23 -147 26 -27 4 -59 9 -70 11 -11 2
-40 7 -65 10 -25 3 -56 7 -70 10 -14 2 -41 7 -60 10 -55 8 -196 42 -290 70
-416 124 -619 278 -595 453 13 98 113 232 226 304 90 57 234 107 354 123 28 3
52 8 55 9 11 6 219 18 320 19 365 1 631 -93 911 -320 36 -30 82 -61 102 -69
67 -28 181 -16 233 24 17 14 143 153 425 471 31 36 71 81 89 100 56 63 129
182 150 245 70 210 -6 354 -285 544 -330 225 -672 363 -1030 416 -71 10 -178
24 -250 30 -38 4 -86 9 -105 11 -47 6 -686 15 -691 10z"/>
</g>
</svg>
