<svg enable-background="new 0 0 198.13 197.58" height="197.58" viewBox="0 0 198.13 197.58" width="198.13" xmlns="http://www.w3.org/2000/svg" xmlns:xlink="http://www.w3.org/1999/xlink"><linearGradient id="a"><stop offset="0" stop-color="#871101"/><stop offset=".99" stop-color="#911209"/><stop offset="1" stop-color="#911209"/></linearGradient><linearGradient id="b" gradientUnits="userSpaceOnUse" x1="194.895" x2="141.0276" xlink:href="#a" y1="153.5576" y2="117.4093"/><linearGradient id="c" gradientUnits="userSpaceOnUse" x1="151.79539" x2="97.929703" xlink:href="#a" y1="217.7852" y2="181.638"/><linearGradient id="d" gradientUnits="userSpaceOnUse" x1="38.696301" x2="47.046902" y1="127.3906" y2="181.66141"><stop offset="0" stop-color="#fff"/><stop offset=".23" stop-color="#e57252"/><stop offset=".46" stop-color="#de3b20"/><stop offset=".99" stop-color="#a60003"/><stop offset="1" stop-color="#a60003"/></linearGradient><linearGradient id="e" gradientUnits="userSpaceOnUse" x1="96.132797" x2="99.209602" y1="76.715302" y2="132.1021"><stop offset="0" stop-color="#fff"/><stop offset=".23" stop-color="#e4714e"/><stop offset=".56" stop-color="#be1a0d"/><stop offset=".99" stop-color="#a80d00"/><stop offset="1" stop-color="#a80d00"/></linearGradient><linearGradient id="f" gradientUnits="userSpaceOnUse" x1="147.103" x2="156.3141" y1="25.521" y2="65.216202"><stop offset="0" stop-color="#fff"/><stop offset=".18" stop-color="#e46342"/><stop offset=".4" stop-color="#c82410"/><stop offset=".99" stop-color="#a80d00"/><stop offset="1" stop-color="#a80d00"/></linearGradient><linearGradient id="g" gradientUnits="userSpaceOnUse" x1="118.9761" x2="158.66859" y1="11.5415" y2="-8.3048"><stop offset="0" stop-color="#fff"/><stop offset=".54" stop-color="#c81f11"/><stop offset=".99" stop-color="#bf0905"/><stop offset="1" stop-color="#bf0905"/></linearGradient><linearGradient id="h" gradientUnits="userSpaceOnUse" x1="3.9033" x2="7.1702" y1="113.5547" y2="146.2628"><stop offset="0" stop-color="#fff"/><stop offset=".31" stop-color="#de4024"/><stop offset=".99" stop-color="#bf190b"/><stop offset="1" stop-color="#bf190b"/></linearGradient><linearGradient id="i" gradientUnits="userSpaceOnUse" x1="-18.5557" x2="135.0152" y1="155.10451" y2="-2.8093"><stop offset="0" stop-color="#bd0012"/><stop offset=".07" stop-color="#fff"/><stop offset=".17" stop-color="#fff"/><stop offset=".27" stop-color="#c82f1c"/><stop offset=".33" stop-color="#820c01"/><stop offset=".46" stop-color="#a31601"/><stop offset=".72" stop-color="#b31301"/><stop offset=".99" stop-color="#e82609"/><stop offset="1" stop-color="#e82609"/></linearGradient><linearGradient id="j" gradientUnits="userSpaceOnUse" x1="99.074699" x2="52.817699" y1="171.0332" y2="159.61659"><stop offset="0" stop-color="#8c0c01"/><stop offset=".54" stop-color="#990c00"/><stop offset=".99" stop-color="#a80d0e"/><stop offset="1" stop-color="#a80d0e"/></linearGradient><linearGradient id="k" gradientUnits="userSpaceOnUse" x1="178.52589" x2="137.43269" y1="115.5146" y2="78.683998"><stop offset="0" stop-color="#7e110b"/><stop offset=".99" stop-color="#9e0c00"/><stop offset="1" stop-color="#9e0c00"/></linearGradient><linearGradient id="l" gradientUnits="userSpaceOnUse" x1="193.6235" x2="173.15421" y1="47.937" y2="26.053801"><stop offset="0" stop-color="#79130d"/><stop offset=".99" stop-color="#9e120b"/><stop offset="1" stop-color="#9e120b"/></linearGradient><radialGradient id="m" cx="143.8315" cy="79.388199" gradientUnits="userSpaceOnUse" r="50.357601"><stop offset="0" stop-color="#a80d00"/><stop offset=".99" stop-color="#7e0e08"/><stop offset="1" stop-color="#7e0e08"/></radialGradient><radialGradient id="n" cx="74.0923" cy="145.75101" gradientUnits="userSpaceOnUse" r="66.943703"><stop offset="0" stop-color="#a30c00"/><stop offset=".99" stop-color="#800e08"/><stop offset="1" stop-color="#800e08"/></radialGradient><linearGradient id="o" gradientUnits="userSpaceOnUse" x1="26.669901" x2="9.9887" y1="197.33591" y2="140.742"><stop offset="0" stop-color="#8b2114"/><stop offset=".43" stop-color="#9e100a"/><stop offset=".99" stop-color="#b3100c"/><stop offset="1" stop-color="#b3100c"/></linearGradient><linearGradient id="p" gradientUnits="userSpaceOnUse" x1="154.6411" x2="192.039" y1="9.7979" y2="26.305901"><stop offset="0" stop-color="#b31000"/><stop offset=".44" stop-color="#910f08"/><stop offset=".99" stop-color="#791c12"/><stop offset="1" stop-color="#791c12"/></linearGradient><linearGradient id="q" gradientUnits="userSpaceOnUse" x1="174.0737" x2="132.27631" y1="215.5488" y2="141.7533"><stop offset="0" stop-color="#fb7655"/><stop offset=".41" stop-color="#e42b1e"/><stop offset=".99" stop-color="#900"/><stop offset="1" stop-color="#900"/></linearGradient><g clip-rule="evenodd" fill-rule="evenodd"><path d="m153.5 130.41-113.12 67.17 146.469-9.939 11.281-147.691z" fill="url(#q)"/><path d="m187.089 187.54-12.589-86.89-34.291 45.28z" fill="url(#b)"/><path d="m187.259 187.54-92.229-7.24-54.16 17.091z" fill="url(#c)"/><path d="m41 197.41 23.04-75.48-50.7 10.841z" fill="url(#d)"/><path d="m140.2 146.18-21.2-83.04-60.67 56.87z" fill="url(#e)"/><path d="m193.32 64.31-57.35-46.84-15.97 51.63z" fill="url(#f)"/><path d="m166.5.77-33.73 18.64-21.28-18.89z" fill="url(#g)"/><path d="m0 158.09 14.13-25.77-11.43-30.7z" fill="url(#h)"/><path d="m1.94 100.65 11.5 32.62 49.97-11.211 57.05-53.02 16.1-51.139-25.351-17.9-43.1 16.13c-13.579 12.63-39.929 37.62-40.879 38.09-.94.48-17.4 31.59-25.29 46.43z" fill="#fff"/><path d="m42.32 42.05c29.43-29.18 67.37-46.42 81.93-31.73 14.551 14.69-.88 50.39-30.31 79.56s-66.9 47.36-81.45 32.67c-14.56-14.68.4-51.33 29.83-80.5z" fill="url(#i)"/><path d="m41 197.38 22.86-75.72 75.92 24.39c-27.45 25.74-57.98 47.5-98.78 51.33z" fill="url(#j)"/><path d="m120.56 68.89 19.49 77.2c22.93-24.11 43.51-50.03 53.589-82.09z" fill="url(#k)"/><path d="m193.44 64.39c7.8-23.54 9.6-57.31-27.181-63.58l-30.18 16.67z" fill="url(#l)"/><path d="m0 157.75c1.08 38.851 29.11 39.43 41.05 39.771l-27.58-64.411z" fill="#9e1209"/><path d="m120.669 69.01c17.62 10.83 53.131 32.58 53.851 32.98 1.119.63 15.31-23.93 18.53-37.81z" fill="url(#m)"/><path d="m63.83 121.66 30.56 58.96c18.07-9.8 32.22-21.74 45.18-34.53z" fill="url(#n)"/><path d="m13.35 133.19-4.33 51.56c8.17 11.16 19.41 12.13 31.2 11.26-8.53-21.23-25.57-63.68-26.87-62.82z" fill="url(#o)"/><path d="m135.9 17.61 60.71 8.52c-3.24-13.73-13.19-22.59-30.15-25.36z" fill="url(#p)"/></g></svg>