<svg enable-background="new 0 0 432 313.4" viewBox="0 0 432 313.4" xmlns="http://www.w3.org/2000/svg"><g fill="#f15848"><path d="m126.33 123.26c3.27 2.48 3.43 5.46.51 8.95l-6.59 7.43c-.45.45-1.13.68-2.03.68s-1.58-.22-2.03-.68c-3.38-3.04-7.38-4.56-11.99-4.56-5.63 0-9.35 1.07-11.15 3.21-3.6 3.94-.56 7.04 9.12 9.29.68.11 1.35.23 2.03.34 9.12 1.13 16.05 3.72 20.78 7.77s7.09 10.59 7.09 19.6c0 7.89-3.07 13.97-9.21 18.24-6.14 4.28-13.32 6.42-21.54 6.42-11.82 0-21.4-2.87-28.72-8.62-1.35-1.01-2.09-2.25-2.2-3.72-.11-1.46.39-2.81 1.52-4.05l7.43-8.11c.45-.45 1.1-.68 1.94-.68s1.55.23 2.11.68c3.6 3.04 8.67 4.9 15.2 5.58 4.17.45 7.86-.25 11.07-2.11s3.86-4.25 1.94-7.18c-1.24-2.14-5.57-3.55-13.01-4.22-17.91-2.03-26.86-10.42-26.86-25.17 0-7.66 2.96-13.94 8.87-18.84s12.7-7.35 20.36-7.35c5.85 0 10.64.51 14.36 1.52 3.74 1.02 7.4 2.88 11 5.58z"/><path d="m199.65 175.46c1.57-1.24 2.87-1.24 3.88 0l8.79 8.78c1.24 1.13 1.8 2.4 1.69 3.8-.11 1.41-.85 2.56-2.2 3.46-7.21 5.63-15.71 8.45-25.51 8.45-11.94 0-21.93-4.05-29.99-12.17-8.05-8.11-12.08-18.07-12.08-29.9 0-11.94 4.03-21.93 12.08-29.99 8.05-8.05 18.05-12.08 29.99-12.08 9.69 0 18.24 2.82 25.68 8.45 1.35 1.01 2.08 2.22 2.2 3.63.11 1.41-.45 2.68-1.69 3.8l-8.78 8.78c-1.24 1.24-2.59 1.24-4.05 0-3.94-3.15-8.45-4.73-13.52-4.73-6.19 0-11.26 2.14-15.2 6.42s-5.91 9.52-5.91 15.71c0 6.31 1.97 11.57 5.91 15.8 3.94 4.22 9.01 6.33 15.2 6.33 5.29.02 9.79-1.5 13.51-4.54z"/><path d="m235.29 105.19c-2.26-2.14-3.38-4.9-3.38-8.28s1.1-6.17 3.29-8.36c2.2-2.2 5.15-3.29 8.87-3.29 3.94 0 7.01 1.07 9.21 3.21 2.19 2.14 3.29 4.96 3.29 8.45 0 3.38-1.13 6.14-3.38 8.28s-5.24 3.21-8.95 3.21c-3.71-.01-6.69-1.08-8.95-3.22zm20.61 85.48c0 2.37-.82 4.37-2.45 6s-3.63 2.45-6 2.45h-6.25c-2.36 0-4.37-.82-6-2.45s-2.45-3.63-2.45-6v-65.71c0-2.36.82-4.36 2.45-6 1.63-1.63 3.63-2.45 6-2.45h6.25c2.36 0 4.37.82 6 2.45s2.45 3.63 2.45 6z"/><path d="m298.81 225.47c0 2.25-.85 4.22-2.54 5.91s-3.66 2.53-5.91 2.53l-6.25-.17c-2.36 0-4.37-.82-6-2.45s-2.45-3.63-2.45-6v-100.34c0-2.36.82-4.36 2.45-6 1.63-1.63 3.63-2.45 6-2.45h11.49c.79 0 1.52.31 2.2.93s1.01 1.38 1.01 2.28c0 .79.31 1.35.93 1.69s1.21.28 1.77-.17c5.18-3.15 10.3-4.73 15.37-4.73 11.94 0 21.79 3.94 29.56 11.83 7.77 7.88 11.66 17.68 11.66 29.4 0 11.49-3.94 21.4-11.83 29.73-7.88 8.34-17.68 12.22-29.4 11.66-6.65-.45-11.94-2.08-15.88-4.9-.34-.11-.65-.17-.93-.17s-.57.09-.85.25-.42.42-.42.76v30.41zm3.13-51.7c3.89 4.17 8.92 6.25 15.12 6.25 6.19 0 11.26-2.08 15.2-6.25s5.91-9.4 5.91-15.71-1.97-11.57-5.91-15.8c-3.94-4.22-9.01-6.33-15.2-6.33-6.2 0-11.23 2.11-15.12 6.33s-5.83 9.49-5.83 15.8 1.94 11.55 5.83 15.71z"/></g><g fill="#34c3e5"><path d="m235.29 105.19c-2.25-2.14-3.38-4.9-3.38-8.28s1.1-6.17 3.29-8.36 5.15-3.29 8.87-3.29c3.94 0 7.01 1.07 9.21 3.21s3.29 4.96 3.29 8.45c0 3.38-1.13 6.14-3.38 8.28-2.26 2.14-5.24 3.21-8.95 3.21-3.71-.01-6.7-1.08-8.95-3.22z"/><path d="m377.84 151.48c-2.25-2.14-3.38-4.9-3.38-8.28s1.1-6.17 3.29-8.36c2.2-2.2 5.15-3.29 8.87-3.29 3.94 0 7.01 1.07 9.21 3.21s3.29 4.96 3.29 8.45c0 3.38-1.13 6.14-3.38 8.28-2.26 2.14-5.24 3.21-8.95 3.21-3.71-.01-6.7-1.08-8.95-3.22z"/><path d="m356 90.92c-2.25-2.14-3.38-4.9-3.38-8.28s1.1-6.17 3.29-8.36c2.2-2.2 5.15-3.29 8.87-3.29 3.94 0 7.01 1.07 9.21 3.21s3.29 4.96 3.29 8.45c0 3.38-1.13 6.14-3.38 8.28-2.26 2.14-5.24 3.21-8.95 3.21-3.71-.01-6.7-1.08-8.95-3.22z"/><path d="m129.9 93.62c-2.25-2.14-3.38-4.9-3.38-8.28s1.1-6.17 3.29-8.36 5.15-3.29 8.87-3.29c3.94 0 7.01 1.07 9.21 3.21s3.29 4.96 3.29 8.45c0 3.38-1.13 6.14-3.38 8.28-2.26 2.14-5.24 3.21-8.95 3.21-3.71-.01-6.7-1.08-8.95-3.22z"/><path d="m324.55 263.4c-2.25-2.14-3.38-4.9-3.38-8.28s1.1-6.17 3.29-8.36c2.2-2.2 5.15-3.29 8.87-3.29 3.94 0 7.01 1.07 9.21 3.21s3.29 4.96 3.29 8.45c0 3.38-1.13 6.14-3.38 8.28-2.26 2.14-5.24 3.21-8.95 3.21-3.72-.01-6.7-1.08-8.95-3.22z"/><path d="m180.26 59.6c-2.25-2.14-3.38-4.9-3.38-8.28s1.1-6.17 3.29-8.36 5.15-3.29 8.87-3.29c3.94 0 7.01 1.07 9.21 3.21s3.29 4.96 3.29 8.45c0 3.38-1.13 6.14-3.38 8.28-2.26 2.14-5.24 3.21-8.95 3.21-3.71-.01-6.69-1.08-8.95-3.22z"/><path d="m365.35 225.72c-2.25-2.14-3.38-4.9-3.38-8.28s1.1-6.17 3.29-8.36c2.2-2.2 5.15-3.29 8.87-3.29 3.94 0 7.01 1.07 9.21 3.21s3.29 4.96 3.29 8.45c0 3.38-1.13 6.14-3.38 8.28-2.26 2.14-5.24 3.21-8.95 3.21-3.72-.01-6.7-1.08-8.95-3.22z"/><path d="m104.08 243.12c-2.25-2.14-3.38-4.9-3.38-8.28s1.1-6.17 3.29-8.36 5.15-3.29 8.87-3.29c3.94 0 7.01 1.07 9.21 3.21s3.29 4.96 3.29 8.45c0 3.38-1.13 6.14-3.38 8.28-2.26 2.14-5.24 3.21-8.95 3.21-3.71-.01-6.7-1.08-8.95-3.22z"/><path d="m26.25 178.67c-2.25-2.14-3.38-4.9-3.38-8.28s1.1-6.17 3.29-8.36 5.15-3.29 8.87-3.29c3.94 0 7.01 1.07 9.21 3.21s3.29 4.96 3.29 8.45c0 3.38-1.13 6.14-3.38 8.28-2.26 2.14-5.24 3.21-8.95 3.21-3.71-.02-6.69-1.08-8.95-3.22z"/><path d="m324.29 44.43c-2.1-2.05-5.04-3.07-8.81-3.07-3.56 0-6.39 1.05-8.49 3.15s-3.15 4.77-3.15 8c0 3.07.71 6.3-1.47 8.85-2.07 2.43-4.96 2.15-7.81 2.15-3.56 0-6.39 1.05-8.49 3.15s-3.15 4.77-3.15 8 1.08 5.88 3.23 7.92c2.16 2.05 5.01 3.07 8.57 3.07s6.41-1.02 8.57-3.07c2.71-2.57 3.21-5.77 3.19-9.32-.02-2.93.11-6.06 2.57-8.07 2.23-1.83 5.09-1.44 7.77-1.7 2.74-.27 5.35-1.13 7.39-3.06 2.15-2.05 3.23-4.69 3.23-7.92 0-3.34-1.05-6.03-3.15-8.08z"/><path d="m314.89 41.46c-3.07 0-6.3.71-8.85-1.47-2.43-2.07-2.15-4.96-2.15-7.81 0-3.56-1.05-6.39-3.15-8.49s-4.77-3.15-8-3.15-5.88 1.08-7.92 3.23c-2.05 2.16-3.07 5.01-3.07 8.57s1.02 6.41 3.07 8.57c2.57 2.71 5.77 3.21 9.32 3.19 2.93-.02 6.06.11 8.07 2.57 1.83 2.23 1.44 5.09 1.7 7.77"/><path d="m178.33 226.63c-2.05 2.1-3.07 5.04-3.07 8.81 0 3.56 1.05 6.39 3.15 8.49s4.77 3.15 8 3.15c3.07 0 6.3-.71 8.85 1.47 2.43 2.07 2.15 4.96 2.15 7.81 0 3.56 1.05 6.39 3.15 8.49s4.77 3.15 8 3.15 5.88-1.08 7.92-3.23c2.05-2.16 3.07-5.01 3.07-8.57s-1.02-6.41-3.07-8.57c-2.57-2.71-5.77-3.21-9.32-3.19-2.93.02-6.06-.11-8.07-2.57-1.83-2.23-1.44-5.09-1.7-7.77-.27-2.74-1.13-5.35-3.06-7.39-2.05-2.15-4.69-3.23-7.92-3.23-3.33 0-6.03 1.05-8.08 3.15z"/><path d="m175.36 236.04c0 3.07.71 6.3-1.47 8.85-2.07 2.43-4.96 2.15-7.81 2.15-3.56 0-6.39 1.05-8.49 3.15s-3.15 4.77-3.15 8 1.08 5.88 3.23 7.92c2.16 2.05 5.01 3.07 8.57 3.07s6.41-1.02 8.57-3.07c2.71-2.57 3.21-5.77 3.19-9.32-.02-2.93.11-6.06 2.57-8.07 2.23-1.83 5.09-1.44 7.77-1.7"/><path d="m238.68 287.71c2.05-2.1 3.07-5.04 3.07-8.81 0-3.56-1.05-6.39-3.15-8.49s-4.77-3.15-8-3.15c-3.07 0-6.3.71-8.85-1.47-2.43-2.07-2.15-4.96-2.15-7.81 0-3.56-1.05-6.39-3.15-8.49s-4.77-3.15-8-3.15-5.88 1.08-7.92 3.23c-2.05 2.16-3.07 5.01-3.07 8.57s1.02 6.41 3.07 8.57c2.57 2.71 5.77 3.21 9.32 3.19 2.93-.02 6.06.11 8.07 2.57 1.83 2.23 1.44 5.09 1.7 7.77.27 2.74 1.13 5.35 3.06 7.39 2.05 2.15 4.69 3.23 7.92 3.23 3.34 0 6.03-1.05 8.08-3.15z"/><path d="m241.65 278.3c0-3.07-.71-6.3 1.47-8.85 2.07-2.43 4.96-2.15 7.81-2.15 3.56 0 6.39-1.05 8.49-3.15s3.15-4.77 3.15-8-1.08-5.88-3.23-7.92c-2.16-2.05-5.01-3.07-8.57-3.07s-6.41 1.02-8.57 3.07c-2.71 2.57-3.21 5.77-3.19 9.32.02 2.93-.11 6.06-2.57 8.07-2.23 1.83-5.09 1.44-7.77 1.7"/></g></svg>