<svg height="140" viewBox="0 0 153 140" width="153" xmlns="http://www.w3.org/2000/svg"><g fill="#f7a41d"><g transform="translate(0 22)"><path d="m46 0-18 22-9-14z"/><path d="m46 0-13 11-5 11h-6v51h9l-11 5-8 17h-12v-95z"/><path d="m31 73-19 22-8-11z"/></g><g transform="translate(3)"><path d="m53 22 6 14-25 8z"/><path d="m53 22h55v22h-74l19-12z"/><path d="m113 95-19 22-7-13z"/><path d="m113 95-16 9-3 13h-55v-22z"/><path d="m147 0-98 117-49 23 98-118z"/></g><g transform="translate(106 22)"><path d="m35 0-1 18-18 5z"/><path d="m47 0v95h-47l14-12 5-10h6v-50h-9l10-9 9-14z"/><path d="m19 73 5 15-24 7z"/></g></g></svg>